<svg xmlns="http://www.w3.org/2000/svg" version="1.1" xmlns:xlink="http://www.w3.org/1999/xlink" xmlns:svgjs="http://svgjs.com/svgjs" width="512" height="512" x="0" y="0" viewBox="0 0 512 512" style="enable-background:new 0 0 512 512" xml:space="preserve" class=""><g><path fill="#c5c4cc" d="M504.281 83.426h-48.097V13.859c0-8.754 7-13.859 14.011-13.859 5.028 0 10.055 2.61 12.551 8.367l28.117 65.04c2.047 4.738-1.422 10.019-6.582 10.019zm0 0" data-original="#c5c4cc"></path><path fill="#e9e9ea" d="M168.668 0c-7.012 0-14.012 5.105-14.012 13.86v415.124c0 3.305 3.696 5.262 6.43 3.407l28.953-19.657a4.112 4.112 0 0 1 4.625 0l33.07 22.454a4.126 4.126 0 0 0 4.625 0l33.067-22.454a4.112 4.112 0 0 1 4.625 0l33.07 22.454a4.126 4.126 0 0 0 4.625 0l33.067-22.454a4.112 4.112 0 0 1 4.625 0l33.062 22.454a4.126 4.126 0 0 0 4.625 0l33.063-22.454a4.126 4.126 0 0 1 4.625 0l28.94 19.657c2.735 1.855 6.43-.102 6.43-3.407V13.86c0-8.754 7-13.859 14.012-13.859zm0 0" data-original="#e9e9ea" class=""></path><path fill="#aed559" d="M225.348 130.215a7.5 7.5 0 0 1-5.825-2.778l-12.457-15.351a7.503 7.503 0 0 1 1.098-10.55 7.503 7.503 0 0 1 10.55 1.097l6.524 8.043L249.43 79.71a7.501 7.501 0 1 1 11.82 9.234l-29.988 38.387a7.516 7.516 0 0 1-5.844 2.883h-.07zm0 0" data-original="#aed559"></path><path fill="#575b7a" d="M411.96 114.555H298.794a7.497 7.497 0 0 1-7.5-7.5 7.5 7.5 0 0 1 7.5-7.5h113.168a7.5 7.5 0 1 1 0 15zm0 0" data-original="#575b7a"></path><path fill="#aed559" d="M225.348 211.676a7.5 7.5 0 0 1-5.825-2.778l-12.457-15.351a7.503 7.503 0 0 1 1.098-10.55 7.503 7.503 0 0 1 10.55 1.097l6.524 8.039 24.192-30.961a7.5 7.5 0 1 1 11.82 9.234l-29.988 38.387a7.516 7.516 0 0 1-5.844 2.883h-.07zm0 0" data-original="#aed559"></path><path fill="#575b7a" d="M411.96 196.016H298.794a7.5 7.5 0 1 1 0-15h113.168c4.14 0 7.5 3.359 7.5 7.5s-3.36 7.5-7.5 7.5zm0 0" data-original="#575b7a"></path><path fill="#aed559" d="M225.348 293.133a7.51 7.51 0 0 1-5.825-2.774l-12.457-15.351a7.503 7.503 0 0 1 1.098-10.551 7.503 7.503 0 0 1 10.55 1.098l6.524 8.039 24.192-30.961a7.5 7.5 0 1 1 11.82 9.234l-29.988 38.387a7.516 7.516 0 0 1-5.844 2.883c-.023-.004-.047-.004-.07-.004zm0 0" data-original="#aed559"></path><path fill="#575b7a" d="M411.96 277.477H298.794a7.5 7.5 0 0 1-7.5-7.5 7.5 7.5 0 0 1 7.5-7.5h113.168c4.14 0 7.5 3.359 7.5 7.5 0 4.14-3.36 7.5-7.5 7.5zm0 0" data-original="#575b7a"></path><path fill="#8cbafa" d="M0 342.066v16.836c0 6.243 5.063 11.305 11.305 11.305h232.73c6.242 0 11.305-5.062 11.305-11.305v-16.836c0-6.242-5.063-11.304-11.305-11.304H11.305C5.062 330.762 0 335.824 0 342.066zm0 0" data-original="#8cbafa"></path><path fill="#5692d8" d="M244.035 330.762h-23.351c6.242 0 11.304 5.062 11.304 11.304v16.836c0 6.243-5.062 11.305-11.304 11.305h23.351c6.242 0 11.305-5.062 11.305-11.305v-16.836c0-6.242-5.063-11.304-11.305-11.304zm0 0" data-original="#5692d8"></path><path fill="#aed559" d="M41.355 478.777 17.98 370.207h219.38l-23.372 108.566a15.324 15.324 0 0 1-14.984 12.102H56.336c-7.219 0-13.461-5.04-14.98-12.098zm0 0" data-original="#aed559"></path><path fill="#7fab38" d="M213.676 370.207 190.3 478.773a15.33 15.33 0 0 1-14.985 12.102h23.688c7.219 0 13.46-5.04 14.98-12.102l23.375-108.566zm0 0" data-original="#7fab38"></path><path fill="#575b7a" d="M57.266 352.523a7.652 7.652 0 0 1-4.13-1.203c-3.6-2.28-4.663-7.05-2.382-10.652l53.941-84.973c2.282-3.597 7.051-4.664 10.653-2.379 3.597 2.282 4.664 7.051 2.379 10.653L63.789 348.94a7.718 7.718 0 0 1-6.523 3.582zM198.074 352.523a7.707 7.707 0 0 1-6.52-3.582l-53.94-84.972a7.718 7.718 0 0 1 2.378-10.653 7.722 7.722 0 0 1 10.656 2.38l53.938 84.972a7.718 7.718 0 0 1-6.512 11.855zm0 0" data-original="#575b7a"></path><g fill="#7fab38"><path d="M80.297 422.91a7.497 7.497 0 0 1-7.5-7.5v-15.437a7.5 7.5 0 1 1 15 0v15.437a7.5 7.5 0 0 1-7.5 7.5zM127.672 422.91a7.497 7.497 0 0 1-7.5-7.5v-15.437a7.5 7.5 0 1 1 15 0v15.437a7.5 7.5 0 0 1-7.5 7.5zM175.043 422.91a7.5 7.5 0 0 1-7.5-7.5v-15.437a7.5 7.5 0 1 1 15 0v15.437c0 4.145-3.356 7.5-7.5 7.5zM103.984 459.273a7.5 7.5 0 0 1-7.5-7.5v-15.437c0-4.145 3.356-7.5 7.5-7.5a7.5 7.5 0 0 1 7.5 7.5v15.437c0 4.141-3.359 7.5-7.5 7.5zM151.355 459.273c-4.14 0-7.5-3.359-7.5-7.5v-15.437a7.5 7.5 0 0 1 7.5-7.5c4.145 0 7.5 3.355 7.5 7.5v15.437a7.5 7.5 0 0 1-7.5 7.5zm0 0" fill="#7fab38" data-original="#7fab38"></path></g><path fill="#ffcd34" d="m426.715 343.625-41.113 25.5c-5.75 3.566-13.157-.71-12.946-7.473l1.528-48.355 83.941-145.395c2.766-4.789 8.887-6.43 13.676-3.664l35.191 20.32c4.79 2.762 6.43 8.887 3.664 13.672zm0 0" data-original="#ffcd34" class=""></path><path fill="#e69012" d="m506.992 184.559-16.652-9.614c2.972 1.715 3.137 6.985.375 11.774l-83.945 145.39-33.598 29.84c-.164.145-.324.262-.488.39.293 6.356 7.367 10.227 12.918 6.786l41.113-25.5 83.941-145.395c2.766-4.785 1.125-10.91-3.664-13.671zm0 0" data-original="#e69012" class=""></path><path fill="#575b7a" d="m373.727 327.746-1.07 33.906c-.212 6.762 7.19 11.04 12.945 7.473l28.824-17.879zm0 0" data-original="#575b7a"></path><path fill="#252d4c" d="m396.73 341.027-23.558 20.922c-.164.145-.324.262-.488.39v.005c.293 6.304 7.316 10.254 12.918 6.781l28.828-17.879zm0 0" data-original="#252d4c"></path><path fill="#fa7ec1" d="m506.992 184.559-35.191-20.32c-4.79-2.762-10.91-1.126-13.672 3.663l-12.074 20.91 52.53 30.329 12.071-20.91c2.766-4.786 1.125-10.91-3.664-13.672zm0 0" data-original="#fa7ec1"></path><path fill="#cf579c" d="m478.645 207.625 19.94 11.516 12.071-20.91c2.766-4.786 1.125-10.91-3.664-13.672l-16.652-9.614c2.972 1.715 3.137 6.985.375 11.774zm0 0" data-original="#cf579c" class=""></path></g></svg>